<?xml version="1.0" standalone="no"?>
<!DOCTYPE svg PUBLIC "-//W3C//DTD SVG 20010904//EN"
 "http://www.w3.org/TR/2001/REC-SVG-20010904/DTD/svg10.dtd">
<svg version="1.0" xmlns="http://www.w3.org/2000/svg"
 width="2100.000000pt" height="1500.000000pt" viewBox="0 0 2100.000000 1500.000000"
 preserveAspectRatio="xMidYMid meet">

<g transform="translate(0.000000,1500.000000) scale(0.100000,-0.100000)"
fill="#000000" stroke="none">
<path d="M11450 9539 c-77 -31 -122 -117 -123 -234 -1 -94 19 -142 111 -265
101 -135 343 -370 382 -370 43 0 322 282 414 419 78 117 95 219 56 324 -23 61
-58 99 -112 121 -76 32 -150 17 -257 -53 -77 -49 -122 -53 -179 -17 -95 60
-161 86 -214 85 -29 0 -64 -5 -78 -10z"/>
<path d="M6655 8445 c-350 -55 -642 -296 -749 -617 -42 -127 -51 -191 -50
-368 0 -150 3 -188 23 -265 115 -443 406 -667 906 -701 108 -7 251 6 350 33
113 30 254 104 337 179 42 38 74 72 70 76 -5 5 -96 37 -204 72 l-196 65 -63
-27 c-58 -24 -76 -26 -204 -27 -168 0 -241 14 -353 67 -142 67 -251 193 -288
333 -8 28 -14 56 -14 62 0 10 176 13 828 15 l827 3 0 165 0 165 -822 5 -823 5
25 48 c61 121 160 216 290 278 140 66 179 71 643 76 236 3 412 9 412 14 0 16
-114 124 -181 171 -220 157 -486 217 -764 173z"/>
<path d="M10278 8430 c-91 -14 -161 -38 -224 -76 -71 -42 -176 -143 -211 -201
-28 -48 -39 -53 -48 -22 -4 12 -44 58 -89 103 -80 81 -162 133 -266 171 -70
25 -259 31 -340 11 -88 -23 -192 -77 -260 -136 -32 -28 -60 -50 -63 -50 -2 0
-8 36 -11 80 l-7 81 -157 -3 -157 -3 0 -920 0 -920 183 -3 182 -2 0 595 0 595
25 65 c29 79 68 137 128 192 75 69 99 78 212 78 86 0 107 -3 150 -24 67 -33
147 -116 184 -193 60 -123 63 -148 68 -755 l5 -553 179 0 179 0 0 550 c0 547
3 596 36 698 35 107 107 202 184 246 52 29 61 31 160 31 98 0 109 -2 159 -30
94 -52 166 -157 207 -305 16 -59 18 -121 22 -628 l3 -562 185 2 185 3 -1 554
c0 495 -5 628 -26 720 -73 318 -254 531 -506 595 -76 19 -200 27 -270 16z"/>
<path d="M14318 8410 c-113 -19 -249 -79 -346 -152 -35 -26 -65 -48 -67 -48
-2 0 -6 39 -7 88 l-3 87 -179 3 -179 2 6 -391 c4 -216 7 -632 7 -926 l0 -533
190 2 190 3 3 590 2 590 37 76 c70 143 184 230 327 251 207 30 349 -50 427
-242 52 -129 55 -170 53 -740 l-1 -525 196 -3 196 -2 0 543 c0 639 -6 713 -76
899 -62 164 -196 312 -346 381 -108 50 -292 70 -430 47z"/>
<path d="M12125 8395 c-115 -25 -249 -86 -330 -149 -20 -16 -20 -16 3 -36 13
-11 91 -53 172 -95 l149 -75 86 9 c105 12 226 0 288 -29 89 -42 174 -161 191
-267 l6 -42 -42 -5 c-24 -3 -176 -7 -338 -10 -328 -4 -369 -10 -497 -72 -88
-42 -188 -132 -226 -203 -44 -81 -59 -144 -58 -255 0 -118 17 -190 69 -296 51
-105 177 -231 282 -282 261 -128 568 -92 744 86 35 36 67 66 70 66 3 0 6 -45
6 -100 l0 -100 181 0 181 0 -5 623 c-5 666 -7 704 -59 841 -74 199 -244 349
-443 391 -88 18 -346 19 -430 0z m569 -1172 l7 -138 -64 -61 c-115 -109 -232
-150 -408 -142 -84 4 -104 9 -171 41 -51 25 -89 52 -117 83 -91 104 -74 247
37 303 72 36 173 46 503 49 l206 2 7 -137z"/>
</g>
</svg>
